<svg width="57" height="24" viewBox="0 0 57 24" fill="none" xmlns="http://www.w3.org/2000/svg">
<line x1="4.5" y1="3.09088" x2="4.5" y2="17" stroke="#B9B9B9"/>
<ellipse cx="4" cy="3.09091" rx="4" ry="3.09091" fill="#B9B9B9"/>
<path d="M14.5483 17.0526H12.2812L15.2259 8.32534H18.0341L20.9787 17.0526H18.7116L16.6619 10.5242H16.5938L14.5483 17.0526ZM14.2457 13.618H18.9844V15.2202H14.2457V13.618ZM21.9183 17.0526V10.5072H23.9425V11.7003H24.0107C24.13 11.2685 24.3246 10.9475 24.5945 10.7373C24.8643 10.5242 25.1783 10.4177 25.5362 10.4177C25.6328 10.4177 25.7322 10.4248 25.8345 10.439C25.9368 10.4503 26.032 10.4688 26.12 10.4944V12.3055C26.0206 12.2714 25.8899 12.2444 25.728 12.2245C25.5689 12.2046 25.4268 12.1947 25.3018 12.1947C25.0547 12.1947 24.8317 12.2501 24.6328 12.3609C24.4368 12.4688 24.282 12.6208 24.1683 12.8168C24.0575 13.01 24.0021 13.2373 24.0021 13.4986V17.0526H21.9183ZM29.6847 17.1762C28.9972 17.1762 28.4063 17.0356 27.9119 16.7543C27.4205 16.4702 27.0412 16.0753 26.7741 15.5697C26.5099 15.0611 26.3778 14.4716 26.3778 13.8012C26.3778 13.1279 26.5099 12.5384 26.7741 12.0327C27.0412 11.5242 27.4205 11.1293 27.9119 10.8481C28.4063 10.564 28.9972 10.4219 29.6847 10.4219C30.3722 10.4219 30.9616 10.564 31.4531 10.8481C31.9474 11.1293 32.3267 11.5242 32.5909 12.0327C32.858 12.5384 32.9915 13.1279 32.9915 13.8012C32.9915 14.4716 32.858 15.0611 32.5909 15.5697C32.3267 16.0753 31.9474 16.4702 31.4531 16.7543C30.9616 17.0356 30.3722 17.1762 29.6847 17.1762ZM29.6974 15.6037C29.9474 15.6037 30.1591 15.527 30.3324 15.3736C30.5057 15.2202 30.6378 15.0072 30.7287 14.7344C30.8224 14.4617 30.8693 14.1464 30.8693 13.7884C30.8693 13.4248 30.8224 13.1066 30.7287 12.8339C30.6378 12.5611 30.5057 12.3481 30.3324 12.1947C30.1591 12.0412 29.9474 11.9645 29.6974 11.9645C29.4389 11.9645 29.2202 12.0412 29.0412 12.1947C28.8651 12.3481 28.7301 12.5611 28.6364 12.8339C28.5455 13.1066 28.5 13.4248 28.5 13.7884C28.5 14.1464 28.5455 14.4617 28.6364 14.7344C28.7301 15.0072 28.8651 15.2202 29.0412 15.3736C29.2202 15.527 29.4389 15.6037 29.6974 15.6037ZM38.282 14.2273V10.5072H40.3615V17.0526H38.3757V15.8339H38.3075C38.1626 16.2344 37.9155 16.5526 37.5661 16.7884C37.2195 17.0214 36.8004 17.1378 36.3089 17.1378C35.8629 17.1378 35.4709 17.0356 35.1328 16.831C34.7947 16.6265 34.532 16.341 34.3445 15.9745C34.157 15.6052 34.0618 15.1734 34.0589 14.679V10.5072H36.1428V14.2699C36.1456 14.6251 36.2393 14.9049 36.424 15.1094C36.6087 15.314 36.8601 15.4162 37.1783 15.4162C37.3857 15.4162 37.5717 15.3708 37.7365 15.2799C37.9041 15.1861 38.0362 15.0512 38.1328 14.8751C38.2322 14.6961 38.282 14.4802 38.282 14.2273ZM43.7717 13.3197V17.0526H41.6879V10.5072H43.6694V11.7089H43.7418C43.8867 11.3083 44.1339 10.9944 44.4833 10.7671C44.8327 10.537 45.2489 10.4219 45.7319 10.4219C46.1921 10.4219 46.5913 10.5256 46.9293 10.733C47.2702 10.9376 47.5344 11.2245 47.7219 11.5938C47.9123 11.9603 48.006 12.3893 48.0032 12.8807V17.0526H45.9194V13.2898C45.9222 12.9262 45.8299 12.6421 45.6424 12.4376C45.4577 12.233 45.2006 12.1307 44.8711 12.1307C44.6523 12.1307 44.4592 12.179 44.2915 12.2756C44.1268 12.3694 43.9989 12.5043 43.908 12.6805C43.82 12.8566 43.7745 13.0697 43.7717 13.3197ZM51.6839 17.1464C51.201 17.1464 50.7621 17.0214 50.3672 16.7714C49.9723 16.5214 49.657 16.1464 49.4212 15.6464C49.1854 15.1464 49.0675 14.5256 49.0675 13.7841C49.0675 13.0143 49.1896 12.3807 49.4339 11.8836C49.6783 11.3864 49.9979 11.0185 50.3928 10.7799C50.7905 10.5412 51.218 10.4219 51.6754 10.4219C52.0192 10.4219 52.3132 10.4816 52.5575 10.6009C52.8018 10.7174 53.0036 10.868 53.1626 11.0526C53.3217 11.2373 53.4425 11.429 53.5249 11.6279H53.5675V8.32534H55.6513V17.0526H53.5888V15.9915H53.5249C53.4368 16.1932 53.3118 16.3822 53.1499 16.5583C52.9879 16.7344 52.7848 16.8765 52.5405 16.9844C52.299 17.0924 52.0135 17.1464 51.6839 17.1464ZM52.4084 15.5228C52.6612 15.5228 52.8771 15.4518 53.0561 15.3097C53.2351 15.1648 53.3729 14.9617 53.4695 14.7003C53.5661 14.439 53.6143 14.1322 53.6143 13.7799C53.6143 13.4219 53.5661 13.1137 53.4695 12.8552C53.3757 12.5966 53.2379 12.3978 53.0561 12.2586C52.8771 12.1194 52.6612 12.0498 52.4084 12.0498C52.1499 12.0498 51.9311 12.1208 51.7521 12.2628C51.5732 12.4049 51.4368 12.6052 51.343 12.8637C51.2521 13.1222 51.2067 13.4276 51.2067 13.7799C51.2067 14.1322 51.2536 14.439 51.3473 14.7003C51.4411 14.9617 51.576 15.1648 51.7521 15.3097C51.9311 15.4518 52.1499 15.5228 52.4084 15.5228Z" fill="black"/>
</svg>
